<mxfile>
    <diagram id="C5RBs43oDa-KdzZeNtuy" name="Page-1">
        <mxGraphModel dx="4584" dy="2429" grid="1" gridSize="10" guides="1" tooltips="1" connect="1" arrows="1" fold="1" page="1" pageScale="1" pageWidth="827" pageHeight="1169" math="0" shadow="0">
            <root>
                <mxCell id="WIyWlLk6GJQsqaUBKTNV-0"/>
                <mxCell id="WIyWlLk6GJQsqaUBKTNV-1" parent="WIyWlLk6GJQsqaUBKTNV-0"/>
                <mxCell id="6IVgwyMmgzkGukLWkvMQ-4" value="Table" style="swimlane;fontStyle=1;align=center;verticalAlign=top;childLayout=stackLayout;horizontal=1;startSize=26;horizontalStack=0;resizeParent=1;resizeParentMax=0;resizeLast=0;collapsible=1;marginBottom=0;" parent="WIyWlLk6GJQsqaUBKTNV-1" vertex="1">
                    <mxGeometry x="280" y="970" width="210" height="242" as="geometry"/>
                </mxCell>
                <mxCell id="6IVgwyMmgzkGukLWkvMQ-5" value="- table_id: int" style="text;strokeColor=none;fillColor=none;align=left;verticalAlign=top;spacingLeft=4;spacingRight=4;overflow=hidden;rotatable=0;points=[[0,0.5],[1,0.5]];portConstraint=eastwest;" parent="6IVgwyMmgzkGukLWkvMQ-4" vertex="1">
                    <mxGeometry y="26" width="210" height="26" as="geometry"/>
                </mxCell>
                <mxCell id="CscqqmLNK9t5abqorVkc-76" value="- capacity: int" style="text;strokeColor=none;fillColor=none;align=left;verticalAlign=top;spacingLeft=4;spacingRight=4;overflow=hidden;rotatable=0;points=[[0,0.5],[1,0.5]];portConstraint=eastwest;" parent="6IVgwyMmgzkGukLWkvMQ-4" vertex="1">
                    <mxGeometry y="52" width="210" height="26" as="geometry"/>
                </mxCell>
                <mxCell id="CscqqmLNK9t5abqorVkc-86" value="- guests: Customer[]" style="text;strokeColor=none;fillColor=none;align=left;verticalAlign=top;spacingLeft=4;spacingRight=4;overflow=hidden;rotatable=0;points=[[0,0.5],[1,0.5]];portConstraint=eastwest;" parent="6IVgwyMmgzkGukLWkvMQ-4" vertex="1">
                    <mxGeometry y="78" width="210" height="26" as="geometry"/>
                </mxCell>
                <mxCell id="6IVgwyMmgzkGukLWkvMQ-6" value="" style="line;strokeWidth=1;fillColor=none;align=left;verticalAlign=middle;spacingTop=-1;spacingLeft=3;spacingRight=3;rotatable=0;labelPosition=right;points=[];portConstraint=eastwest;" parent="6IVgwyMmgzkGukLWkvMQ-4" vertex="1">
                    <mxGeometry y="104" width="210" height="8" as="geometry"/>
                </mxCell>
                <mxCell id="CscqqmLNK9t5abqorVkc-157" value="+ Table(capacity: int)" style="text;strokeColor=none;fillColor=none;align=left;verticalAlign=top;spacingLeft=4;spacingRight=4;overflow=hidden;rotatable=0;points=[[0,0.5],[1,0.5]];portConstraint=eastwest;" parent="6IVgwyMmgzkGukLWkvMQ-4" vertex="1">
                    <mxGeometry y="112" width="210" height="26" as="geometry"/>
                </mxCell>
                <mxCell id="CscqqmLNK9t5abqorVkc-158" value="+ add_customer(cust: Customer)" style="text;strokeColor=none;fillColor=none;align=left;verticalAlign=top;spacingLeft=4;spacingRight=4;overflow=hidden;rotatable=0;points=[[0,0.5],[1,0.5]];portConstraint=eastwest;" parent="6IVgwyMmgzkGukLWkvMQ-4" vertex="1">
                    <mxGeometry y="138" width="210" height="26" as="geometry"/>
                </mxCell>
                <mxCell id="CscqqmLNK9t5abqorVkc-159" value="+ remove_customer(customer_id: int)" style="text;strokeColor=none;fillColor=none;align=left;verticalAlign=top;spacingLeft=4;spacingRight=4;overflow=hidden;rotatable=0;points=[[0,0.5],[1,0.5]];portConstraint=eastwest;" parent="6IVgwyMmgzkGukLWkvMQ-4" vertex="1">
                    <mxGeometry y="164" width="210" height="26" as="geometry"/>
                </mxCell>
                <mxCell id="_CLAHyabNoiACAeS01h1-11" value="+ get_space()" style="text;strokeColor=none;fillColor=none;align=left;verticalAlign=top;spacingLeft=4;spacingRight=4;overflow=hidden;rotatable=0;points=[[0,0.5],[1,0.5]];portConstraint=eastwest;" parent="6IVgwyMmgzkGukLWkvMQ-4" vertex="1">
                    <mxGeometry y="190" width="210" height="26" as="geometry"/>
                </mxCell>
                <mxCell id="_CLAHyabNoiACAeS01h1-12" value="+ get_customers()" style="text;strokeColor=none;fillColor=none;align=left;verticalAlign=top;spacingLeft=4;spacingRight=4;overflow=hidden;rotatable=0;points=[[0,0.5],[1,0.5]];portConstraint=eastwest;" parent="6IVgwyMmgzkGukLWkvMQ-4" vertex="1">
                    <mxGeometry y="216" width="210" height="26" as="geometry"/>
                </mxCell>
                <mxCell id="6IVgwyMmgzkGukLWkvMQ-8" value="Order" style="swimlane;fontStyle=1;align=center;verticalAlign=top;childLayout=stackLayout;horizontal=1;startSize=26;horizontalStack=0;resizeParent=1;resizeParentMax=0;resizeLast=0;collapsible=1;marginBottom=0;" parent="WIyWlLk6GJQsqaUBKTNV-1" vertex="1">
                    <mxGeometry x="385.5" y="1240" width="160" height="372" as="geometry"/>
                </mxCell>
                <mxCell id="6IVgwyMmgzkGukLWkvMQ-9" value="- order_id: int" style="text;strokeColor=none;fillColor=none;align=left;verticalAlign=top;spacingLeft=4;spacingRight=4;overflow=hidden;rotatable=0;points=[[0,0.5],[1,0.5]];portConstraint=eastwest;" parent="6IVgwyMmgzkGukLWkvMQ-8" vertex="1">
                    <mxGeometry y="26" width="160" height="26" as="geometry"/>
                </mxCell>
                <mxCell id="CscqqmLNK9t5abqorVkc-18" value="- meals: list" style="text;strokeColor=none;fillColor=none;align=left;verticalAlign=top;spacingLeft=4;spacingRight=4;overflow=hidden;rotatable=0;points=[[0,0.5],[1,0.5]];portConstraint=eastwest;" parent="6IVgwyMmgzkGukLWkvMQ-8" vertex="1">
                    <mxGeometry y="52" width="160" height="26" as="geometry"/>
                </mxCell>
                <mxCell id="CscqqmLNK9t5abqorVkc-88" value="- cust_id: list" style="text;strokeColor=none;fillColor=none;align=left;verticalAlign=top;spacingLeft=4;spacingRight=4;overflow=hidden;rotatable=0;points=[[0,0.5],[1,0.5]];portConstraint=eastwest;" parent="6IVgwyMmgzkGukLWkvMQ-8" vertex="1">
                    <mxGeometry y="78" width="160" height="26" as="geometry"/>
                </mxCell>
                <mxCell id="CscqqmLNK9t5abqorVkc-169" value="- is_prepared: bool" style="text;strokeColor=none;fillColor=none;align=left;verticalAlign=top;spacingLeft=4;spacingRight=4;overflow=hidden;rotatable=0;points=[[0,0.5],[1,0.5]];portConstraint=eastwest;" parent="6IVgwyMmgzkGukLWkvMQ-8" vertex="1">
                    <mxGeometry y="104" width="160" height="26" as="geometry"/>
                </mxCell>
                <mxCell id="CscqqmLNK9t5abqorVkc-254" value="- is_served: bool" style="text;strokeColor=none;fillColor=none;align=left;verticalAlign=top;spacingLeft=4;spacingRight=4;overflow=hidden;rotatable=0;points=[[0,0.5],[1,0.5]];portConstraint=eastwest;" parent="6IVgwyMmgzkGukLWkvMQ-8" vertex="1">
                    <mxGeometry y="130" width="160" height="26" as="geometry"/>
                </mxCell>
                <mxCell id="CscqqmLNK9t5abqorVkc-255" value="- is_paid: bool" style="text;strokeColor=none;fillColor=none;align=left;verticalAlign=top;spacingLeft=4;spacingRight=4;overflow=hidden;rotatable=0;points=[[0,0.5],[1,0.5]];portConstraint=eastwest;" parent="6IVgwyMmgzkGukLWkvMQ-8" vertex="1">
                    <mxGeometry y="156" width="160" height="26" as="geometry"/>
                </mxCell>
                <mxCell id="6IVgwyMmgzkGukLWkvMQ-10" value="" style="line;strokeWidth=1;fillColor=none;align=left;verticalAlign=middle;spacingTop=-1;spacingLeft=3;spacingRight=3;rotatable=0;labelPosition=right;points=[];portConstraint=eastwest;" parent="6IVgwyMmgzkGukLWkvMQ-8" vertex="1">
                    <mxGeometry y="182" width="160" height="8" as="geometry"/>
                </mxCell>
                <mxCell id="CscqqmLNK9t5abqorVkc-39" value="+ Order(meals: Meal[])" style="text;strokeColor=none;fillColor=none;align=left;verticalAlign=top;spacingLeft=4;spacingRight=4;overflow=hidden;rotatable=0;points=[[0,0.5],[1,0.5]];portConstraint=eastwest;" parent="6IVgwyMmgzkGukLWkvMQ-8" vertex="1">
                    <mxGeometry y="190" width="160" height="26" as="geometry"/>
                </mxCell>
                <mxCell id="CscqqmLNK9t5abqorVkc-35" value="+ get_total: float" style="text;strokeColor=none;fillColor=none;align=left;verticalAlign=top;spacingLeft=4;spacingRight=4;overflow=hidden;rotatable=0;points=[[0,0.5],[1,0.5]];portConstraint=eastwest;" parent="6IVgwyMmgzkGukLWkvMQ-8" vertex="1">
                    <mxGeometry y="216" width="160" height="26" as="geometry"/>
                </mxCell>
                <mxCell id="CscqqmLNK9t5abqorVkc-48" value="+ cooking_time(): int" style="text;strokeColor=none;fillColor=none;align=left;verticalAlign=top;spacingLeft=4;spacingRight=4;overflow=hidden;rotatable=0;points=[[0,0.5],[1,0.5]];portConstraint=eastwest;" parent="6IVgwyMmgzkGukLWkvMQ-8" vertex="1">
                    <mxGeometry y="242" width="160" height="26" as="geometry"/>
                </mxCell>
                <mxCell id="_CLAHyabNoiACAeS01h1-7" value="+ pay()" style="text;strokeColor=none;fillColor=none;align=left;verticalAlign=top;spacingLeft=4;spacingRight=4;overflow=hidden;rotatable=0;points=[[0,0.5],[1,0.5]];portConstraint=eastwest;" parent="6IVgwyMmgzkGukLWkvMQ-8" vertex="1">
                    <mxGeometry y="268" width="160" height="26" as="geometry"/>
                </mxCell>
                <mxCell id="_CLAHyabNoiACAeS01h1-8" value="+ deliver()" style="text;strokeColor=none;fillColor=none;align=left;verticalAlign=top;spacingLeft=4;spacingRight=4;overflow=hidden;rotatable=0;points=[[0,0.5],[1,0.5]];portConstraint=eastwest;" parent="6IVgwyMmgzkGukLWkvMQ-8" vertex="1">
                    <mxGeometry y="294" width="160" height="26" as="geometry"/>
                </mxCell>
                <mxCell id="_CLAHyabNoiACAeS01h1-9" value="+ serve()" style="text;strokeColor=none;fillColor=none;align=left;verticalAlign=top;spacingLeft=4;spacingRight=4;overflow=hidden;rotatable=0;points=[[0,0.5],[1,0.5]];portConstraint=eastwest;" parent="6IVgwyMmgzkGukLWkvMQ-8" vertex="1">
                    <mxGeometry y="320" width="160" height="26" as="geometry"/>
                </mxCell>
                <mxCell id="_CLAHyabNoiACAeS01h1-10" value="+ prepare()" style="text;strokeColor=none;fillColor=none;align=left;verticalAlign=top;spacingLeft=4;spacingRight=4;overflow=hidden;rotatable=0;points=[[0,0.5],[1,0.5]];portConstraint=eastwest;" parent="6IVgwyMmgzkGukLWkvMQ-8" vertex="1">
                    <mxGeometry y="346" width="160" height="26" as="geometry"/>
                </mxCell>
                <mxCell id="6IVgwyMmgzkGukLWkvMQ-28" value="Person(ABC)" style="swimlane;fontStyle=1;align=center;verticalAlign=top;childLayout=stackLayout;horizontal=1;startSize=26;horizontalStack=0;resizeParent=1;resizeParentMax=0;resizeLast=0;collapsible=1;marginBottom=0;" parent="WIyWlLk6GJQsqaUBKTNV-1" vertex="1">
                    <mxGeometry x="724" y="1833" width="150" height="86" as="geometry"/>
                </mxCell>
                <mxCell id="6IVgwyMmgzkGukLWkvMQ-29" value="fname: str" style="text;strokeColor=none;fillColor=none;align=left;verticalAlign=top;spacingLeft=4;spacingRight=4;overflow=hidden;rotatable=0;points=[[0,0.5],[1,0.5]];portConstraint=eastwest;" parent="6IVgwyMmgzkGukLWkvMQ-28" vertex="1">
                    <mxGeometry y="26" width="150" height="26" as="geometry"/>
                </mxCell>
                <mxCell id="6IVgwyMmgzkGukLWkvMQ-136" value="lname: str" style="text;strokeColor=none;fillColor=none;align=left;verticalAlign=top;spacingLeft=4;spacingRight=4;overflow=hidden;rotatable=0;points=[[0,0.5],[1,0.5]];portConstraint=eastwest;" parent="6IVgwyMmgzkGukLWkvMQ-28" vertex="1">
                    <mxGeometry y="52" width="150" height="26" as="geometry"/>
                </mxCell>
                <mxCell id="6IVgwyMmgzkGukLWkvMQ-30" value="" style="line;strokeWidth=1;fillColor=none;align=left;verticalAlign=middle;spacingTop=-1;spacingLeft=3;spacingRight=3;rotatable=0;labelPosition=right;points=[];portConstraint=eastwest;" parent="6IVgwyMmgzkGukLWkvMQ-28" vertex="1">
                    <mxGeometry y="78" width="150" height="8" as="geometry"/>
                </mxCell>
                <mxCell id="6IVgwyMmgzkGukLWkvMQ-32" value="Customer" style="swimlane;fontStyle=1;align=center;verticalAlign=top;childLayout=stackLayout;horizontal=1;startSize=26;horizontalStack=0;resizeParent=1;resizeParentMax=0;resizeLast=0;collapsible=1;marginBottom=0;" parent="WIyWlLk6GJQsqaUBKTNV-1" vertex="1">
                    <mxGeometry x="694" y="1014.34" width="210" height="164" as="geometry"/>
                </mxCell>
                <mxCell id="6IVgwyMmgzkGukLWkvMQ-33" value="- cust_id: int" style="text;strokeColor=none;fillColor=none;align=left;verticalAlign=top;spacingLeft=4;spacingRight=4;overflow=hidden;rotatable=0;points=[[0,0.5],[1,0.5]];portConstraint=eastwest;" parent="6IVgwyMmgzkGukLWkvMQ-32" vertex="1">
                    <mxGeometry y="26" width="210" height="26" as="geometry"/>
                </mxCell>
                <mxCell id="CscqqmLNK9t5abqorVkc-150" value="- accounts: Account[]" style="text;strokeColor=none;fillColor=none;align=left;verticalAlign=top;spacingLeft=4;spacingRight=4;overflow=hidden;rotatable=0;points=[[0,0.5],[1,0.5]];portConstraint=eastwest;" parent="6IVgwyMmgzkGukLWkvMQ-32" vertex="1">
                    <mxGeometry y="52" width="210" height="26" as="geometry"/>
                </mxCell>
                <mxCell id="6IVgwyMmgzkGukLWkvMQ-34" value="" style="line;strokeWidth=1;fillColor=none;align=left;verticalAlign=middle;spacingTop=-1;spacingLeft=3;spacingRight=3;rotatable=0;labelPosition=right;points=[];portConstraint=eastwest;" parent="6IVgwyMmgzkGukLWkvMQ-32" vertex="1">
                    <mxGeometry y="78" width="210" height="8" as="geometry"/>
                </mxCell>
                <mxCell id="CscqqmLNK9t5abqorVkc-21" value="+ Customer(fname: str, lname: str)" style="text;strokeColor=none;fillColor=none;align=left;verticalAlign=top;spacingLeft=4;spacingRight=4;overflow=hidden;rotatable=0;points=[[0,0.5],[1,0.5]];portConstraint=eastwest;" parent="6IVgwyMmgzkGukLWkvMQ-32" vertex="1">
                    <mxGeometry y="86" width="210" height="26" as="geometry"/>
                </mxCell>
                <mxCell id="CscqqmLNK9t5abqorVkc-41" value="+ make_order(menu: Menu): Order" style="text;strokeColor=none;fillColor=none;align=left;verticalAlign=top;spacingLeft=4;spacingRight=4;overflow=hidden;rotatable=0;points=[[0,0.5],[1,0.5]];portConstraint=eastwest;" parent="6IVgwyMmgzkGukLWkvMQ-32" vertex="1">
                    <mxGeometry y="112" width="210" height="26" as="geometry"/>
                </mxCell>
                <mxCell id="CscqqmLNK9t5abqorVkc-256" value="+ pay(ord: Order): Order" style="text;strokeColor=none;fillColor=none;align=left;verticalAlign=top;spacingLeft=4;spacingRight=4;overflow=hidden;rotatable=0;points=[[0,0.5],[1,0.5]];portConstraint=eastwest;" parent="6IVgwyMmgzkGukLWkvMQ-32" vertex="1">
                    <mxGeometry y="138" width="210" height="26" as="geometry"/>
                </mxCell>
                <mxCell id="6IVgwyMmgzkGukLWkvMQ-36" value="Employee(ABC)" style="swimlane;fontStyle=1;align=center;verticalAlign=top;childLayout=stackLayout;horizontal=1;startSize=26;horizontalStack=0;resizeParent=1;resizeParentMax=0;resizeLast=0;collapsible=1;marginBottom=0;" parent="WIyWlLk6GJQsqaUBKTNV-1" vertex="1">
                    <mxGeometry x="-310" y="1820" width="300" height="112" as="geometry"/>
                </mxCell>
                <mxCell id="O6WLs0BaMS3x6yio9JV_-1" value="employee_id: int" style="text;strokeColor=none;fillColor=none;align=left;verticalAlign=top;spacingLeft=4;spacingRight=4;overflow=hidden;rotatable=0;points=[[0,0.5],[1,0.5]];portConstraint=eastwest;" parent="6IVgwyMmgzkGukLWkvMQ-36" vertex="1">
                    <mxGeometry y="26" width="300" height="26" as="geometry"/>
                </mxCell>
                <mxCell id="6IVgwyMmgzkGukLWkvMQ-37" value="salary: int" style="text;strokeColor=none;fillColor=none;align=left;verticalAlign=top;spacingLeft=4;spacingRight=4;overflow=hidden;rotatable=0;points=[[0,0.5],[1,0.5]];portConstraint=eastwest;" parent="6IVgwyMmgzkGukLWkvMQ-36" vertex="1">
                    <mxGeometry y="52" width="300" height="26" as="geometry"/>
                </mxCell>
                <mxCell id="6IVgwyMmgzkGukLWkvMQ-38" value="" style="line;strokeWidth=1;fillColor=none;align=left;verticalAlign=middle;spacingTop=-1;spacingLeft=3;spacingRight=3;rotatable=0;labelPosition=right;points=[];portConstraint=eastwest;" parent="6IVgwyMmgzkGukLWkvMQ-36" vertex="1">
                    <mxGeometry y="78" width="300" height="8" as="geometry"/>
                </mxCell>
                <mxCell id="CscqqmLNK9t5abqorVkc-58" value="change_salary(amount:int)" style="text;strokeColor=none;fillColor=none;align=left;verticalAlign=top;spacingLeft=4;spacingRight=4;overflow=hidden;rotatable=0;points=[[0,0.5],[1,0.5]];portConstraint=eastwest;" parent="6IVgwyMmgzkGukLWkvMQ-36" vertex="1">
                    <mxGeometry y="86" width="300" height="26" as="geometry"/>
                </mxCell>
                <mxCell id="6IVgwyMmgzkGukLWkvMQ-45" value="Waiter" style="swimlane;fontStyle=1;align=center;verticalAlign=top;childLayout=stackLayout;horizontal=1;startSize=26;horizontalStack=0;resizeParent=1;resizeParentMax=0;resizeLast=0;collapsible=1;marginBottom=0;" parent="WIyWlLk6GJQsqaUBKTNV-1" vertex="1">
                    <mxGeometry x="-268.75" y="1480" width="207.5" height="60" as="geometry"/>
                </mxCell>
                <mxCell id="6IVgwyMmgzkGukLWkvMQ-47" value="" style="line;strokeWidth=1;fillColor=none;align=left;verticalAlign=middle;spacingTop=-1;spacingLeft=3;spacingRight=3;rotatable=0;labelPosition=right;points=[];portConstraint=eastwest;" parent="6IVgwyMmgzkGukLWkvMQ-45" vertex="1">
                    <mxGeometry y="26" width="207.5" height="8" as="geometry"/>
                </mxCell>
                <mxCell id="CscqqmLNK9t5abqorVkc-20" value="+ serve(ord: Order)" style="text;strokeColor=none;fillColor=none;align=left;verticalAlign=top;spacingLeft=4;spacingRight=4;overflow=hidden;rotatable=0;points=[[0,0.5],[1,0.5]];portConstraint=eastwest;fontStyle=4" parent="6IVgwyMmgzkGukLWkvMQ-45" vertex="1">
                    <mxGeometry y="34" width="207.5" height="26" as="geometry"/>
                </mxCell>
                <mxCell id="6IVgwyMmgzkGukLWkvMQ-66" value="CreditCard" style="swimlane;fontStyle=1;align=center;verticalAlign=top;childLayout=stackLayout;horizontal=1;startSize=26;horizontalStack=0;resizeParent=1;resizeParentMax=0;resizeLast=0;collapsible=1;marginBottom=0;" parent="WIyWlLk6GJQsqaUBKTNV-1" vertex="1">
                    <mxGeometry x="-246.5" y="320" width="160" height="136" as="geometry"/>
                </mxCell>
                <mxCell id="6IVgwyMmgzkGukLWkvMQ-141" value="- card_num: int" style="text;strokeColor=none;fillColor=none;align=left;verticalAlign=top;spacingLeft=4;spacingRight=4;overflow=hidden;rotatable=0;points=[[0,0.5],[1,0.5]];portConstraint=eastwest;" parent="6IVgwyMmgzkGukLWkvMQ-66" vertex="1">
                    <mxGeometry y="26" width="160" height="26" as="geometry"/>
                </mxCell>
                <mxCell id="6IVgwyMmgzkGukLWkvMQ-142" value="- holder: str" style="text;strokeColor=none;fillColor=none;align=left;verticalAlign=top;spacingLeft=4;spacingRight=4;overflow=hidden;rotatable=0;points=[[0,0.5],[1,0.5]];portConstraint=eastwest;" parent="6IVgwyMmgzkGukLWkvMQ-66" vertex="1">
                    <mxGeometry y="52" width="160" height="26" as="geometry"/>
                </mxCell>
                <mxCell id="_CLAHyabNoiACAeS01h1-4" value="- money: float" style="text;strokeColor=none;fillColor=none;align=left;verticalAlign=top;spacingLeft=4;spacingRight=4;overflow=hidden;rotatable=0;points=[[0,0.5],[1,0.5]];portConstraint=eastwest;" parent="6IVgwyMmgzkGukLWkvMQ-66" vertex="1">
                    <mxGeometry y="78" width="160" height="26" as="geometry"/>
                </mxCell>
                <mxCell id="6IVgwyMmgzkGukLWkvMQ-68" value="" style="line;strokeWidth=1;fillColor=none;align=left;verticalAlign=middle;spacingTop=-1;spacingLeft=3;spacingRight=3;rotatable=0;labelPosition=right;points=[];portConstraint=eastwest;" parent="6IVgwyMmgzkGukLWkvMQ-66" vertex="1">
                    <mxGeometry y="104" width="160" height="6" as="geometry"/>
                </mxCell>
                <mxCell id="CscqqmLNK9t5abqorVkc-16" value="+ charge(amount: float)" style="text;strokeColor=none;fillColor=none;align=left;verticalAlign=top;spacingLeft=4;spacingRight=4;overflow=hidden;rotatable=0;points=[[0,0.5],[1,0.5]];portConstraint=eastwest;" parent="6IVgwyMmgzkGukLWkvMQ-66" vertex="1">
                    <mxGeometry y="110" width="160" height="26" as="geometry"/>
                </mxCell>
                <mxCell id="6IVgwyMmgzkGukLWkvMQ-150" value="OnlineOrder" style="swimlane;fontStyle=1;align=center;verticalAlign=top;childLayout=stackLayout;horizontal=1;startSize=26;horizontalStack=0;resizeParent=1;resizeParentMax=0;resizeLast=0;collapsible=1;marginBottom=0;" parent="WIyWlLk6GJQsqaUBKTNV-1" vertex="1">
                    <mxGeometry x="385.5" y="1700" width="160" height="150" as="geometry"/>
                </mxCell>
                <mxCell id="CscqqmLNK9t5abqorVkc-70" value="- addr: str" style="text;strokeColor=none;fillColor=none;align=left;verticalAlign=top;spacingLeft=4;spacingRight=4;overflow=hidden;rotatable=0;points=[[0,0.5],[1,0.5]];portConstraint=eastwest;" parent="6IVgwyMmgzkGukLWkvMQ-150" vertex="1">
                    <mxGeometry y="26" width="160" height="26" as="geometry"/>
                </mxCell>
                <mxCell id="CscqqmLNK9t5abqorVkc-72" value="- is_delivered: bool" style="text;strokeColor=none;fillColor=none;align=left;verticalAlign=top;spacingLeft=4;spacingRight=4;overflow=hidden;rotatable=0;points=[[0,0.5],[1,0.5]];portConstraint=eastwest;" parent="6IVgwyMmgzkGukLWkvMQ-150" vertex="1">
                    <mxGeometry y="52" width="160" height="26" as="geometry"/>
                </mxCell>
                <mxCell id="CscqqmLNK9t5abqorVkc-266" value="- is_packed: bool" style="text;strokeColor=none;fillColor=none;align=left;verticalAlign=top;spacingLeft=4;spacingRight=4;overflow=hidden;rotatable=0;points=[[0,0.5],[1,0.5]];portConstraint=eastwest;" parent="6IVgwyMmgzkGukLWkvMQ-150" vertex="1">
                    <mxGeometry y="78" width="160" height="26" as="geometry"/>
                </mxCell>
                <mxCell id="6IVgwyMmgzkGukLWkvMQ-152" value="" style="line;strokeWidth=1;fillColor=none;align=left;verticalAlign=middle;spacingTop=-1;spacingLeft=3;spacingRight=3;rotatable=0;labelPosition=right;points=[];portConstraint=eastwest;" parent="6IVgwyMmgzkGukLWkvMQ-150" vertex="1">
                    <mxGeometry y="104" width="160" height="8" as="geometry"/>
                </mxCell>
                <mxCell id="CscqqmLNK9t5abqorVkc-83" value="- OnlineOrder(meals: Meal[], &#10;addr: str)" style="text;strokeColor=none;fillColor=none;align=left;verticalAlign=top;spacingLeft=4;spacingRight=4;overflow=hidden;rotatable=0;points=[[0,0.5],[1,0.5]];portConstraint=eastwest;" parent="6IVgwyMmgzkGukLWkvMQ-150" vertex="1">
                    <mxGeometry y="112" width="160" height="38" as="geometry"/>
                </mxCell>
                <mxCell id="CscqqmLNK9t5abqorVkc-22" value="Meal" style="swimlane;fontStyle=1;align=center;verticalAlign=top;childLayout=stackLayout;horizontal=1;startSize=26;horizontalStack=0;resizeParent=1;resizeParentMax=0;resizeLast=0;collapsible=1;marginBottom=0;" parent="WIyWlLk6GJQsqaUBKTNV-1" vertex="1">
                    <mxGeometry x="480" y="690" width="230" height="216" as="geometry"/>
                </mxCell>
                <mxCell id="CscqqmLNK9t5abqorVkc-23" value="- name: str" style="text;strokeColor=none;fillColor=none;align=left;verticalAlign=top;spacingLeft=4;spacingRight=4;overflow=hidden;rotatable=0;points=[[0,0.5],[1,0.5]];portConstraint=eastwest;" parent="CscqqmLNK9t5abqorVkc-22" vertex="1">
                    <mxGeometry y="26" width="230" height="26" as="geometry"/>
                </mxCell>
                <mxCell id="CscqqmLNK9t5abqorVkc-26" value="- price: float" style="text;strokeColor=none;fillColor=none;align=left;verticalAlign=top;spacingLeft=4;spacingRight=4;overflow=hidden;rotatable=0;points=[[0,0.5],[1,0.5]];portConstraint=eastwest;" parent="CscqqmLNK9t5abqorVkc-22" vertex="1">
                    <mxGeometry y="52" width="230" height="26" as="geometry"/>
                </mxCell>
                <mxCell id="CscqqmLNK9t5abqorVkc-60" value="- is_ready: bool" style="text;strokeColor=none;fillColor=none;align=left;verticalAlign=top;spacingLeft=4;spacingRight=4;overflow=hidden;rotatable=0;points=[[0,0.5],[1,0.5]];portConstraint=eastwest;" parent="CscqqmLNK9t5abqorVkc-22" vertex="1">
                    <mxGeometry y="78" width="230" height="26" as="geometry"/>
                </mxCell>
                <mxCell id="CscqqmLNK9t5abqorVkc-46" value="- cooking_time: int" style="text;strokeColor=none;fillColor=none;align=left;verticalAlign=top;spacingLeft=4;spacingRight=4;overflow=hidden;rotatable=0;points=[[0,0.5],[1,0.5]];portConstraint=eastwest;" parent="CscqqmLNK9t5abqorVkc-22" vertex="1">
                    <mxGeometry y="104" width="230" height="26" as="geometry"/>
                </mxCell>
                <mxCell id="CscqqmLNK9t5abqorVkc-24" value="" style="line;strokeWidth=1;fillColor=none;align=left;verticalAlign=middle;spacingTop=-1;spacingLeft=3;spacingRight=3;rotatable=0;labelPosition=right;points=[];portConstraint=eastwest;" parent="CscqqmLNK9t5abqorVkc-22" vertex="1">
                    <mxGeometry y="130" width="230" height="8" as="geometry"/>
                </mxCell>
                <mxCell id="CscqqmLNK9t5abqorVkc-47" value="+ Meal(type: str, price: float, time_m: int)" style="text;strokeColor=none;fillColor=none;align=left;verticalAlign=top;spacingLeft=4;spacingRight=4;overflow=hidden;rotatable=0;points=[[0,0.5],[1,0.5]];portConstraint=eastwest;" parent="CscqqmLNK9t5abqorVkc-22" vertex="1">
                    <mxGeometry y="138" width="230" height="26" as="geometry"/>
                </mxCell>
                <mxCell id="CscqqmLNK9t5abqorVkc-25" value="+ get_price(): float" style="text;strokeColor=none;fillColor=none;align=left;verticalAlign=top;spacingLeft=4;spacingRight=4;overflow=hidden;rotatable=0;points=[[0,0.5],[1,0.5]];portConstraint=eastwest;" parent="CscqqmLNK9t5abqorVkc-22" vertex="1">
                    <mxGeometry y="164" width="230" height="26" as="geometry"/>
                </mxCell>
                <mxCell id="CscqqmLNK9t5abqorVkc-49" value="+ get_time(): int" style="text;strokeColor=none;fillColor=none;align=left;verticalAlign=top;spacingLeft=4;spacingRight=4;overflow=hidden;rotatable=0;points=[[0,0.5],[1,0.5]];portConstraint=eastwest;" parent="CscqqmLNK9t5abqorVkc-22" vertex="1">
                    <mxGeometry y="190" width="230" height="26" as="geometry"/>
                </mxCell>
                <mxCell id="CscqqmLNK9t5abqorVkc-81" value="" style="endArrow=diamondThin;endFill=0;endSize=24;html=1;edgeStyle=elbowEdgeStyle;elbow=vertical;" parent="WIyWlLk6GJQsqaUBKTNV-1" source="6IVgwyMmgzkGukLWkvMQ-66" target="CscqqmLNK9t5abqorVkc-89" edge="1">
                    <mxGeometry width="160" relative="1" as="geometry">
                        <mxPoint x="-321.5" y="430" as="sourcePoint"/>
                        <mxPoint x="-161.5" y="430" as="targetPoint"/>
                    </mxGeometry>
                </mxCell>
                <mxCell id="CscqqmLNK9t5abqorVkc-82" value="1..*" style="edgeLabel;html=1;align=center;verticalAlign=middle;resizable=0;points=[];" parent="CscqqmLNK9t5abqorVkc-81" vertex="1" connectable="0">
                    <mxGeometry x="-0.7889" y="3" relative="1" as="geometry">
                        <mxPoint x="22" y="4" as="offset"/>
                    </mxGeometry>
                </mxCell>
                <mxCell id="CscqqmLNK9t5abqorVkc-89" value="Account" style="swimlane;fontStyle=1;align=center;verticalAlign=top;childLayout=stackLayout;horizontal=1;startSize=26;horizontalStack=0;resizeParent=1;resizeParentMax=0;resizeLast=0;collapsible=1;marginBottom=0;" parent="WIyWlLk6GJQsqaUBKTNV-1" vertex="1">
                    <mxGeometry x="-246.5" y="491.40999999999997" width="160" height="268" as="geometry"/>
                </mxCell>
                <mxCell id="6IVgwyMmgzkGukLWkvMQ-143" value="- account_id: int" style="text;strokeColor=none;fillColor=none;align=left;verticalAlign=top;spacingLeft=4;spacingRight=4;overflow=hidden;rotatable=0;points=[[0,0.5],[1,0.5]];portConstraint=eastwest;" parent="CscqqmLNK9t5abqorVkc-89" vertex="1">
                    <mxGeometry y="26" width="160" height="26" as="geometry"/>
                </mxCell>
                <mxCell id="6IVgwyMmgzkGukLWkvMQ-137" value="- phnum: int" style="text;strokeColor=none;fillColor=none;align=left;verticalAlign=top;spacingLeft=4;spacingRight=4;overflow=hidden;rotatable=0;points=[[0,0.5],[1,0.5]];portConstraint=eastwest;" parent="CscqqmLNK9t5abqorVkc-89" vertex="1">
                    <mxGeometry y="52" width="160" height="26" as="geometry"/>
                </mxCell>
                <mxCell id="6IVgwyMmgzkGukLWkvMQ-138" value="- addr: str" style="text;strokeColor=none;fillColor=none;align=left;verticalAlign=top;spacingLeft=4;spacingRight=4;overflow=hidden;rotatable=0;points=[[0,0.5],[1,0.5]];portConstraint=eastwest;" parent="CscqqmLNK9t5abqorVkc-89" vertex="1">
                    <mxGeometry y="78" width="160" height="26" as="geometry"/>
                </mxCell>
                <mxCell id="CscqqmLNK9t5abqorVkc-55" value="- allOrders: Order[]" style="text;strokeColor=none;fillColor=none;align=left;verticalAlign=top;spacingLeft=4;spacingRight=4;overflow=hidden;rotatable=0;points=[[0,0.5],[1,0.5]];portConstraint=eastwest;" parent="CscqqmLNK9t5abqorVkc-89" vertex="1">
                    <mxGeometry y="104" width="160" height="26" as="geometry"/>
                </mxCell>
                <mxCell id="CscqqmLNK9t5abqorVkc-51" value="- cards: CreditCard[]" style="text;strokeColor=none;fillColor=none;align=left;verticalAlign=top;spacingLeft=4;spacingRight=4;overflow=hidden;rotatable=0;points=[[0,0.5],[1,0.5]];portConstraint=eastwest;" parent="CscqqmLNK9t5abqorVkc-89" vertex="1">
                    <mxGeometry y="130" width="160" height="26" as="geometry"/>
                </mxCell>
                <mxCell id="CscqqmLNK9t5abqorVkc-73" value="- password: str" style="text;strokeColor=none;fillColor=none;align=left;verticalAlign=top;spacingLeft=4;spacingRight=4;overflow=hidden;rotatable=0;points=[[0,0.5],[1,0.5]];portConstraint=eastwest;" parent="CscqqmLNK9t5abqorVkc-89" vertex="1">
                    <mxGeometry y="156" width="160" height="26" as="geometry"/>
                </mxCell>
                <mxCell id="6IVgwyMmgzkGukLWkvMQ-88" value="- login: str" style="text;strokeColor=none;fillColor=none;align=left;verticalAlign=top;spacingLeft=4;spacingRight=4;overflow=hidden;rotatable=0;points=[[0,0.5],[1,0.5]];portConstraint=eastwest;" parent="CscqqmLNK9t5abqorVkc-89" vertex="1">
                    <mxGeometry y="182" width="160" height="26" as="geometry"/>
                </mxCell>
                <mxCell id="CscqqmLNK9t5abqorVkc-91" value="" style="line;strokeWidth=1;fillColor=none;align=left;verticalAlign=middle;spacingTop=-1;spacingLeft=3;spacingRight=3;rotatable=0;labelPosition=right;points=[];portConstraint=eastwest;" parent="CscqqmLNK9t5abqorVkc-89" vertex="1">
                    <mxGeometry y="208" width="160" height="8" as="geometry"/>
                </mxCell>
                <mxCell id="CscqqmLNK9t5abqorVkc-92" value="+ Account(type): type" style="text;strokeColor=none;fillColor=none;align=left;verticalAlign=top;spacingLeft=4;spacingRight=4;overflow=hidden;rotatable=0;points=[[0,0.5],[1,0.5]];portConstraint=eastwest;" parent="CscqqmLNK9t5abqorVkc-89" vertex="1">
                    <mxGeometry y="216" width="160" height="26" as="geometry"/>
                </mxCell>
                <mxCell id="CscqqmLNK9t5abqorVkc-252" value="+ add_cc(card: CreditCard)" style="text;strokeColor=none;fillColor=none;align=left;verticalAlign=top;spacingLeft=4;spacingRight=4;overflow=hidden;rotatable=0;points=[[0,0.5],[1,0.5]];portConstraint=eastwest;" parent="CscqqmLNK9t5abqorVkc-89" vertex="1">
                    <mxGeometry y="242" width="160" height="26" as="geometry"/>
                </mxCell>
                <mxCell id="CscqqmLNK9t5abqorVkc-95" value="Restauant" style="swimlane;fontStyle=1;align=center;verticalAlign=top;childLayout=stackLayout;horizontal=1;startSize=26;horizontalStack=0;resizeParent=1;resizeParentMax=0;resizeLast=0;collapsible=1;marginBottom=0;" parent="WIyWlLk6GJQsqaUBKTNV-1" vertex="1">
                    <mxGeometry x="-280" y="860" width="230" height="476" as="geometry"/>
                </mxCell>
                <mxCell id="CscqqmLNK9t5abqorVkc-96" value="- menu: Menu" style="text;strokeColor=none;fillColor=none;align=left;verticalAlign=top;spacingLeft=4;spacingRight=4;overflow=hidden;rotatable=0;points=[[0,0.5],[1,0.5]];portConstraint=eastwest;" parent="CscqqmLNK9t5abqorVkc-95" vertex="1">
                    <mxGeometry y="26" width="230" height="26" as="geometry"/>
                </mxCell>
                <mxCell id="CscqqmLNK9t5abqorVkc-100" value="- staff: Employee[]" style="text;strokeColor=none;fillColor=none;align=left;verticalAlign=top;spacingLeft=4;spacingRight=4;overflow=hidden;rotatable=0;points=[[0,0.5],[1,0.5]];portConstraint=eastwest;" parent="CscqqmLNK9t5abqorVkc-95" vertex="1">
                    <mxGeometry y="52" width="230" height="26" as="geometry"/>
                </mxCell>
                <mxCell id="CscqqmLNK9t5abqorVkc-101" value="- tables: Table[]" style="text;strokeColor=none;fillColor=none;align=left;verticalAlign=top;spacingLeft=4;spacingRight=4;overflow=hidden;rotatable=0;points=[[0,0.5],[1,0.5]];portConstraint=eastwest;" parent="CscqqmLNK9t5abqorVkc-95" vertex="1">
                    <mxGeometry y="78" width="230" height="26" as="geometry"/>
                </mxCell>
                <mxCell id="CscqqmLNK9t5abqorVkc-179" value="- sales: Order[]" style="text;strokeColor=none;fillColor=none;align=left;verticalAlign=top;spacingLeft=4;spacingRight=4;overflow=hidden;rotatable=0;points=[[0,0.5],[1,0.5]];portConstraint=eastwest;" parent="CscqqmLNK9t5abqorVkc-95" vertex="1">
                    <mxGeometry y="104" width="230" height="26" as="geometry"/>
                </mxCell>
                <mxCell id="CscqqmLNK9t5abqorVkc-104" value="- accounts: Account[]" style="text;strokeColor=none;fillColor=none;align=left;verticalAlign=top;spacingLeft=4;spacingRight=4;overflow=hidden;rotatable=0;points=[[0,0.5],[1,0.5]];portConstraint=eastwest;" parent="CscqqmLNK9t5abqorVkc-95" vertex="1">
                    <mxGeometry y="130" width="230" height="26" as="geometry"/>
                </mxCell>
                <mxCell id="CscqqmLNK9t5abqorVkc-97" value="" style="line;strokeWidth=1;fillColor=none;align=left;verticalAlign=middle;spacingTop=-1;spacingLeft=3;spacingRight=3;rotatable=0;labelPosition=right;points=[];portConstraint=eastwest;" parent="CscqqmLNK9t5abqorVkc-95" vertex="1">
                    <mxGeometry y="156" width="230" height="8" as="geometry"/>
                </mxCell>
                <mxCell id="CscqqmLNK9t5abqorVkc-106" value="+ Restaurant(menu: Menu)" style="text;strokeColor=none;fillColor=none;align=left;verticalAlign=top;spacingLeft=4;spacingRight=4;overflow=hidden;rotatable=0;points=[[0,0.5],[1,0.5]];portConstraint=eastwest;" parent="CscqqmLNK9t5abqorVkc-95" vertex="1">
                    <mxGeometry y="164" width="230" height="26" as="geometry"/>
                </mxCell>
                <mxCell id="CscqqmLNK9t5abqorVkc-98" value="+ get_total_sales(type): float" style="text;strokeColor=none;fillColor=none;align=left;verticalAlign=top;spacingLeft=4;spacingRight=4;overflow=hidden;rotatable=0;points=[[0,0.5],[1,0.5]];portConstraint=eastwest;" parent="CscqqmLNK9t5abqorVkc-95" vertex="1">
                    <mxGeometry y="190" width="230" height="26" as="geometry"/>
                </mxCell>
                <mxCell id="CscqqmLNK9t5abqorVkc-117" value="+ get_total_space(type): int" style="text;strokeColor=none;fillColor=none;align=left;verticalAlign=top;spacingLeft=4;spacingRight=4;overflow=hidden;rotatable=0;points=[[0,0.5],[1,0.5]];portConstraint=eastwest;" parent="CscqqmLNK9t5abqorVkc-95" vertex="1">
                    <mxGeometry y="216" width="230" height="26" as="geometry"/>
                </mxCell>
                <mxCell id="CscqqmLNK9t5abqorVkc-165" value="+ get_free_space(type): int" style="text;strokeColor=none;fillColor=none;align=left;verticalAlign=top;spacingLeft=4;spacingRight=4;overflow=hidden;rotatable=0;points=[[0,0.5],[1,0.5]];portConstraint=eastwest;" parent="CscqqmLNK9t5abqorVkc-95" vertex="1">
                    <mxGeometry y="242" width="230" height="26" as="geometry"/>
                </mxCell>
                <mxCell id="CscqqmLNK9t5abqorVkc-147" value="+ get_total_guests(type): int" style="text;strokeColor=none;fillColor=none;align=left;verticalAlign=top;spacingLeft=4;spacingRight=4;overflow=hidden;rotatable=0;points=[[0,0.5],[1,0.5]];portConstraint=eastwest;" parent="CscqqmLNK9t5abqorVkc-95" vertex="1">
                    <mxGeometry y="268" width="230" height="26" as="geometry"/>
                </mxCell>
                <mxCell id="CscqqmLNK9t5abqorVkc-118" value="+ add_staff(emp: Employee)" style="text;strokeColor=none;fillColor=none;align=left;verticalAlign=top;spacingLeft=4;spacingRight=4;overflow=hidden;rotatable=0;points=[[0,0.5],[1,0.5]];portConstraint=eastwest;" parent="CscqqmLNK9t5abqorVkc-95" vertex="1">
                    <mxGeometry y="294" width="230" height="26" as="geometry"/>
                </mxCell>
                <mxCell id="CscqqmLNK9t5abqorVkc-119" value="+ remove_staff(employee_id: int)" style="text;strokeColor=none;fillColor=none;align=left;verticalAlign=top;spacingLeft=4;spacingRight=4;overflow=hidden;rotatable=0;points=[[0,0.5],[1,0.5]];portConstraint=eastwest;" parent="CscqqmLNK9t5abqorVkc-95" vertex="1">
                    <mxGeometry y="320" width="230" height="26" as="geometry"/>
                </mxCell>
                <mxCell id="CscqqmLNK9t5abqorVkc-153" value="+ add_account(acc: Account)" style="text;strokeColor=none;fillColor=none;align=left;verticalAlign=top;spacingLeft=4;spacingRight=4;overflow=hidden;rotatable=0;points=[[0,0.5],[1,0.5]];portConstraint=eastwest;" parent="CscqqmLNK9t5abqorVkc-95" vertex="1">
                    <mxGeometry y="346" width="230" height="26" as="geometry"/>
                </mxCell>
                <mxCell id="CscqqmLNK9t5abqorVkc-154" value="+ remove_account(account_id: int)" style="text;strokeColor=none;fillColor=none;align=left;verticalAlign=top;spacingLeft=4;spacingRight=4;overflow=hidden;rotatable=0;points=[[0,0.5],[1,0.5]];portConstraint=eastwest;" parent="CscqqmLNK9t5abqorVkc-95" vertex="1">
                    <mxGeometry y="372" width="230" height="26" as="geometry"/>
                </mxCell>
                <mxCell id="CscqqmLNK9t5abqorVkc-185" value="" style="endArrow=diamondThin;endFill=0;endSize=24;html=1;edgeStyle=elbowEdgeStyle;elbow=vertical;entryX=1;entryY=0.5;entryDx=0;entryDy=0;" parent="CscqqmLNK9t5abqorVkc-95" source="CscqqmLNK9t5abqorVkc-95" target="CscqqmLNK9t5abqorVkc-165" edge="1">
                    <mxGeometry width="160" relative="1" as="geometry">
                        <mxPoint x="150" y="440" as="sourcePoint"/>
                        <mxPoint x="400" y="360" as="targetPoint"/>
                    </mxGeometry>
                </mxCell>
                <mxCell id="CscqqmLNK9t5abqorVkc-258" value="+ add_sale(ord: Order)" style="text;strokeColor=none;fillColor=none;align=left;verticalAlign=top;spacingLeft=4;spacingRight=4;overflow=hidden;rotatable=0;points=[[0,0.5],[1,0.5]];portConstraint=eastwest;" parent="CscqqmLNK9t5abqorVkc-95" vertex="1">
                    <mxGeometry y="398" width="230" height="26" as="geometry"/>
                </mxCell>
                <mxCell id="CscqqmLNK9t5abqorVkc-259" value="+ add_table(tab: Table)" style="text;strokeColor=none;fillColor=none;align=left;verticalAlign=top;spacingLeft=4;spacingRight=4;overflow=hidden;rotatable=0;points=[[0,0.5],[1,0.5]];portConstraint=eastwest;" parent="CscqqmLNK9t5abqorVkc-95" vertex="1">
                    <mxGeometry y="424" width="230" height="26" as="geometry"/>
                </mxCell>
                <mxCell id="CscqqmLNK9t5abqorVkc-260" value="+ remove_table(table_id: int)" style="text;strokeColor=none;fillColor=none;align=left;verticalAlign=top;spacingLeft=4;spacingRight=4;overflow=hidden;rotatable=0;points=[[0,0.5],[1,0.5]];portConstraint=eastwest;" parent="CscqqmLNK9t5abqorVkc-95" vertex="1">
                    <mxGeometry y="450" width="230" height="26" as="geometry"/>
                </mxCell>
                <mxCell id="CscqqmLNK9t5abqorVkc-170" style="edgeStyle=elbowEdgeStyle;rounded=1;orthogonalLoop=1;jettySize=auto;elbow=vertical;html=1;exitX=0.5;exitY=0;exitDx=0;exitDy=0;entryX=0.357;entryY=0;entryDx=0;entryDy=0;entryPerimeter=0;" parent="WIyWlLk6GJQsqaUBKTNV-1" source="CscqqmLNK9t5abqorVkc-107" target="6IVgwyMmgzkGukLWkvMQ-32" edge="1">
                    <mxGeometry relative="1" as="geometry">
                        <mxPoint x="766" y="1113" as="targetPoint"/>
                        <Array as="points">
                            <mxPoint x="500" y="660"/>
                        </Array>
                    </mxGeometry>
                </mxCell>
                <mxCell id="CscqqmLNK9t5abqorVkc-171" value="1" style="edgeLabel;html=1;align=center;verticalAlign=middle;resizable=0;points=[];" parent="CscqqmLNK9t5abqorVkc-170" vertex="1" connectable="0">
                    <mxGeometry x="-0.9787" relative="1" as="geometry">
                        <mxPoint x="-15" as="offset"/>
                    </mxGeometry>
                </mxCell>
                <mxCell id="CscqqmLNK9t5abqorVkc-107" value="Menu" style="swimlane;fontStyle=1;align=center;verticalAlign=top;childLayout=stackLayout;horizontal=1;startSize=26;horizontalStack=0;resizeParent=1;resizeParentMax=0;resizeLast=0;collapsible=1;marginBottom=0;" parent="WIyWlLk6GJQsqaUBKTNV-1" vertex="1">
                    <mxGeometry x="118.24" y="670" width="221.76" height="268" as="geometry"/>
                </mxCell>
                <mxCell id="CscqqmLNK9t5abqorVkc-108" value="- items: Meal[]" style="text;strokeColor=none;fillColor=none;align=left;verticalAlign=top;spacingLeft=4;spacingRight=4;overflow=hidden;rotatable=0;points=[[0,0.5],[1,0.5]];portConstraint=eastwest;" parent="CscqqmLNK9t5abqorVkc-107" vertex="1">
                    <mxGeometry y="26" width="221.76" height="26" as="geometry"/>
                </mxCell>
                <mxCell id="CscqqmLNK9t5abqorVkc-109" value="" style="line;strokeWidth=1;fillColor=none;align=left;verticalAlign=middle;spacingTop=-1;spacingLeft=3;spacingRight=3;rotatable=0;labelPosition=right;points=[];portConstraint=eastwest;" parent="CscqqmLNK9t5abqorVkc-107" vertex="1">
                    <mxGeometry y="52" width="221.76" height="8" as="geometry"/>
                </mxCell>
                <mxCell id="CscqqmLNK9t5abqorVkc-110" value="+ Menu(items: Meal[])" style="text;strokeColor=none;fillColor=none;align=left;verticalAlign=top;spacingLeft=4;spacingRight=4;overflow=hidden;rotatable=0;points=[[0,0.5],[1,0.5]];portConstraint=eastwest;" parent="CscqqmLNK9t5abqorVkc-107" vertex="1">
                    <mxGeometry y="60" width="221.76" height="26" as="geometry"/>
                </mxCell>
                <mxCell id="CscqqmLNK9t5abqorVkc-172" value="+ get_item(type: str): Meal" style="text;strokeColor=none;fillColor=none;align=left;verticalAlign=top;spacingLeft=4;spacingRight=4;overflow=hidden;rotatable=0;points=[[0,0.5],[1,0.5]];portConstraint=eastwest;" parent="CscqqmLNK9t5abqorVkc-107" vertex="1">
                    <mxGeometry y="86" width="221.76" height="26" as="geometry"/>
                </mxCell>
                <mxCell id="CscqqmLNK9t5abqorVkc-111" value="+ cost_less_than(price: float): Meal[]" style="text;strokeColor=none;fillColor=none;align=left;verticalAlign=top;spacingLeft=4;spacingRight=4;overflow=hidden;rotatable=0;points=[[0,0.5],[1,0.5]];portConstraint=eastwest;" parent="CscqqmLNK9t5abqorVkc-107" vertex="1">
                    <mxGeometry y="112" width="221.76" height="26" as="geometry"/>
                </mxCell>
                <mxCell id="CscqqmLNK9t5abqorVkc-112" value="+ cost_more_than(price: float): Meal[]" style="text;strokeColor=none;fillColor=none;align=left;verticalAlign=top;spacingLeft=4;spacingRight=4;overflow=hidden;rotatable=0;points=[[0,0.5],[1,0.5]];portConstraint=eastwest;" parent="CscqqmLNK9t5abqorVkc-107" vertex="1">
                    <mxGeometry y="138" width="221.76" height="26" as="geometry"/>
                </mxCell>
                <mxCell id="CscqqmLNK9t5abqorVkc-113" value="+ cook_longer_than(min: float): Meal[]" style="text;strokeColor=none;fillColor=none;align=left;verticalAlign=top;spacingLeft=4;spacingRight=4;overflow=hidden;rotatable=0;points=[[0,0.5],[1,0.5]];portConstraint=eastwest;" parent="CscqqmLNK9t5abqorVkc-107" vertex="1">
                    <mxGeometry y="164" width="221.76" height="26" as="geometry"/>
                </mxCell>
                <mxCell id="CscqqmLNK9t5abqorVkc-114" value="+ cook_less_than(min: float): Meal[]" style="text;strokeColor=none;fillColor=none;align=left;verticalAlign=top;spacingLeft=4;spacingRight=4;overflow=hidden;rotatable=0;points=[[0,0.5],[1,0.5]];portConstraint=eastwest;" parent="CscqqmLNK9t5abqorVkc-107" vertex="1">
                    <mxGeometry y="190" width="221.76" height="26" as="geometry"/>
                </mxCell>
                <mxCell id="CscqqmLNK9t5abqorVkc-261" value="+ add_meal(meal: Meal)" style="text;strokeColor=none;fillColor=none;align=left;verticalAlign=top;spacingLeft=4;spacingRight=4;overflow=hidden;rotatable=0;points=[[0,0.5],[1,0.5]];portConstraint=eastwest;" parent="CscqqmLNK9t5abqorVkc-107" vertex="1">
                    <mxGeometry y="216" width="221.76" height="26" as="geometry"/>
                </mxCell>
                <mxCell id="CscqqmLNK9t5abqorVkc-262" value="+ remove_meal(type: str)" style="text;strokeColor=none;fillColor=none;align=left;verticalAlign=top;spacingLeft=4;spacingRight=4;overflow=hidden;rotatable=0;points=[[0,0.5],[1,0.5]];portConstraint=eastwest;" parent="CscqqmLNK9t5abqorVkc-107" vertex="1">
                    <mxGeometry y="242" width="221.76" height="26" as="geometry"/>
                </mxCell>
                <mxCell id="CscqqmLNK9t5abqorVkc-115" value="" style="endArrow=diamondThin;endFill=0;endSize=24;html=1;edgeStyle=elbowEdgeStyle;elbow=vertical;" parent="WIyWlLk6GJQsqaUBKTNV-1" source="CscqqmLNK9t5abqorVkc-107" target="CscqqmLNK9t5abqorVkc-95" edge="1">
                    <mxGeometry width="160" relative="1" as="geometry">
                        <mxPoint x="-340" y="1140" as="sourcePoint"/>
                        <mxPoint x="-180" y="1140" as="targetPoint"/>
                    </mxGeometry>
                </mxCell>
                <mxCell id="CscqqmLNK9t5abqorVkc-116" value="1" style="edgeLabel;html=1;align=center;verticalAlign=middle;resizable=0;points=[];" parent="CscqqmLNK9t5abqorVkc-115" vertex="1" connectable="0">
                    <mxGeometry x="-0.7143" relative="1" as="geometry">
                        <mxPoint y="-17" as="offset"/>
                    </mxGeometry>
                </mxCell>
                <mxCell id="CscqqmLNK9t5abqorVkc-123" value="" style="endArrow=diamondThin;endFill=0;endSize=24;html=1;edgeStyle=elbowEdgeStyle;elbow=vertical;" parent="WIyWlLk6GJQsqaUBKTNV-1" source="6IVgwyMmgzkGukLWkvMQ-4" target="CscqqmLNK9t5abqorVkc-95" edge="1">
                    <mxGeometry width="160" relative="1" as="geometry">
                        <mxPoint x="-430" y="1240" as="sourcePoint"/>
                        <mxPoint x="-270" y="1240" as="targetPoint"/>
                    </mxGeometry>
                </mxCell>
                <mxCell id="CscqqmLNK9t5abqorVkc-124" value="1..*" style="edgeLabel;html=1;align=center;verticalAlign=middle;resizable=0;points=[];" parent="CscqqmLNK9t5abqorVkc-123" vertex="1" connectable="0">
                    <mxGeometry x="-0.9364" y="3" relative="1" as="geometry">
                        <mxPoint x="-10" y="-12" as="offset"/>
                    </mxGeometry>
                </mxCell>
                <mxCell id="CscqqmLNK9t5abqorVkc-125" value="" style="endArrow=diamondThin;endFill=1;endSize=24;html=1;edgeStyle=elbowEdgeStyle;elbow=vertical;" parent="WIyWlLk6GJQsqaUBKTNV-1" source="CscqqmLNK9t5abqorVkc-22" target="CscqqmLNK9t5abqorVkc-107" edge="1">
                    <mxGeometry width="160" relative="1" as="geometry">
                        <mxPoint x="430" y="590" as="sourcePoint"/>
                        <mxPoint x="660" y="600" as="targetPoint"/>
                    </mxGeometry>
                </mxCell>
                <mxCell id="CscqqmLNK9t5abqorVkc-126" value="1..*" style="edgeLabel;html=1;align=center;verticalAlign=middle;resizable=0;points=[];" parent="CscqqmLNK9t5abqorVkc-125" vertex="1" connectable="0">
                    <mxGeometry x="-0.8317" y="2" relative="1" as="geometry">
                        <mxPoint x="-10" y="-19" as="offset"/>
                    </mxGeometry>
                </mxCell>
                <mxCell id="CscqqmLNK9t5abqorVkc-128" value="" style="endArrow=diamondThin;endFill=0;endSize=24;html=1;edgeStyle=orthogonalEdgeStyle;exitX=0.5;exitY=0;exitDx=0;exitDy=0;" parent="WIyWlLk6GJQsqaUBKTNV-1" source="6IVgwyMmgzkGukLWkvMQ-57" target="CscqqmLNK9t5abqorVkc-95" edge="1">
                    <mxGeometry width="160" relative="1" as="geometry">
                        <mxPoint x="-320" y="1400" as="sourcePoint"/>
                        <mxPoint x="-160" y="1400" as="targetPoint"/>
                        <Array as="points">
                            <mxPoint x="-375" y="1390"/>
                            <mxPoint x="-165" y="1390"/>
                        </Array>
                    </mxGeometry>
                </mxCell>
                <mxCell id="CscqqmLNK9t5abqorVkc-132" value="1..*" style="edgeLabel;html=1;align=center;verticalAlign=middle;resizable=0;points=[];" parent="CscqqmLNK9t5abqorVkc-128" vertex="1" connectable="0">
                    <mxGeometry x="-0.8104" y="-1" relative="1" as="geometry">
                        <mxPoint x="14" y="19" as="offset"/>
                    </mxGeometry>
                </mxCell>
                <mxCell id="CscqqmLNK9t5abqorVkc-129" value="" style="endArrow=diamondThin;endFill=0;endSize=24;html=1;edgeStyle=elbowEdgeStyle;elbow=vertical;" parent="WIyWlLk6GJQsqaUBKTNV-1" source="6IVgwyMmgzkGukLWkvMQ-45" target="CscqqmLNK9t5abqorVkc-95" edge="1">
                    <mxGeometry width="160" relative="1" as="geometry">
                        <mxPoint x="-340" y="1420" as="sourcePoint"/>
                        <mxPoint x="-180" y="1420" as="targetPoint"/>
                    </mxGeometry>
                </mxCell>
                <mxCell id="CscqqmLNK9t5abqorVkc-133" value="1..*" style="edgeLabel;html=1;align=center;verticalAlign=middle;resizable=0;points=[];" parent="CscqqmLNK9t5abqorVkc-129" vertex="1" connectable="0">
                    <mxGeometry x="-0.9156" relative="1" as="geometry">
                        <mxPoint x="15" y="-9" as="offset"/>
                    </mxGeometry>
                </mxCell>
                <mxCell id="CscqqmLNK9t5abqorVkc-130" value="" style="endArrow=diamondThin;endFill=0;endSize=24;html=1;edgeStyle=elbowEdgeStyle;elbow=vertical;exitX=0.5;exitY=0;exitDx=0;exitDy=0;" parent="WIyWlLk6GJQsqaUBKTNV-1" source="CscqqmLNK9t5abqorVkc-238" target="CscqqmLNK9t5abqorVkc-95" edge="1">
                    <mxGeometry width="160" relative="1" as="geometry">
                        <mxPoint x="50" y="1410" as="sourcePoint"/>
                        <mxPoint x="130" y="1380" as="targetPoint"/>
                        <Array as="points">
                            <mxPoint x="-30" y="1390"/>
                        </Array>
                    </mxGeometry>
                </mxCell>
                <mxCell id="CscqqmLNK9t5abqorVkc-251" value="1..*" style="edgeLabel;html=1;align=center;verticalAlign=middle;resizable=0;points=[];" parent="CscqqmLNK9t5abqorVkc-130" vertex="1" connectable="0">
                    <mxGeometry x="-0.9246" y="-4" relative="1" as="geometry">
                        <mxPoint x="6" y="-1" as="offset"/>
                    </mxGeometry>
                </mxCell>
                <mxCell id="CscqqmLNK9t5abqorVkc-135" value="Extends" style="endArrow=block;endSize=16;endFill=0;html=1;edgeStyle=orthogonalEdgeStyle;elbow=vertical;startArrow=none;" parent="WIyWlLk6GJQsqaUBKTNV-1" source="6IVgwyMmgzkGukLWkvMQ-45" target="6IVgwyMmgzkGukLWkvMQ-36" edge="1">
                    <mxGeometry width="160" relative="1" as="geometry">
                        <mxPoint x="-420" y="1600" as="sourcePoint"/>
                        <mxPoint x="-165" y="1738" as="targetPoint"/>
                        <Array as="points">
                            <mxPoint x="-160" y="1640"/>
                            <mxPoint x="-160" y="1640"/>
                        </Array>
                    </mxGeometry>
                </mxCell>
                <mxCell id="CscqqmLNK9t5abqorVkc-138" value="Extends" style="endArrow=block;endSize=16;endFill=0;html=1;edgeStyle=elbowEdgeStyle;elbow=vertical;entryX=0.75;entryY=0;entryDx=0;entryDy=0;exitX=0.521;exitY=1.011;exitDx=0;exitDy=0;exitPerimeter=0;" parent="WIyWlLk6GJQsqaUBKTNV-1" source="CscqqmLNK9t5abqorVkc-241" target="6IVgwyMmgzkGukLWkvMQ-36" edge="1">
                    <mxGeometry width="160" relative="1" as="geometry">
                        <mxPoint x="53.07999999999993" y="1492.3460000000002" as="sourcePoint"/>
                        <mxPoint x="160" y="1620" as="targetPoint"/>
                        <Array as="points">
                            <mxPoint x="-10" y="1740"/>
                        </Array>
                    </mxGeometry>
                </mxCell>
                <mxCell id="CscqqmLNK9t5abqorVkc-139" value="" style="endArrow=diamondThin;endFill=0;endSize=24;html=1;edgeStyle=elbowEdgeStyle;elbow=vertical;" parent="WIyWlLk6GJQsqaUBKTNV-1" source="6IVgwyMmgzkGukLWkvMQ-32" target="6IVgwyMmgzkGukLWkvMQ-4" edge="1">
                    <mxGeometry width="160" relative="1" as="geometry">
                        <mxPoint x="34" y="1096" as="sourcePoint"/>
                        <mxPoint x="194" y="1096" as="targetPoint"/>
                        <Array as="points">
                            <mxPoint x="620" y="1091"/>
                            <mxPoint x="600" y="1100"/>
                        </Array>
                    </mxGeometry>
                </mxCell>
                <mxCell id="CscqqmLNK9t5abqorVkc-164" value="0..*" style="edgeLabel;html=1;align=center;verticalAlign=middle;resizable=0;points=[];" parent="CscqqmLNK9t5abqorVkc-139" vertex="1" connectable="0">
                    <mxGeometry x="-0.8664" y="-2" relative="1" as="geometry">
                        <mxPoint x="-6" y="-9" as="offset"/>
                    </mxGeometry>
                </mxCell>
                <mxCell id="CscqqmLNK9t5abqorVkc-140" value="" style="endArrow=diamondThin;endFill=0;endSize=24;html=1;edgeStyle=elbowEdgeStyle;" parent="WIyWlLk6GJQsqaUBKTNV-1" source="CscqqmLNK9t5abqorVkc-89" target="CscqqmLNK9t5abqorVkc-95" edge="1">
                    <mxGeometry width="160" relative="1" as="geometry">
                        <mxPoint x="60" y="1139" as="sourcePoint"/>
                        <mxPoint x="220" y="1139" as="targetPoint"/>
                    </mxGeometry>
                </mxCell>
                <mxCell id="CscqqmLNK9t5abqorVkc-148" value="0..*" style="edgeLabel;html=1;align=center;verticalAlign=middle;resizable=0;points=[];" parent="CscqqmLNK9t5abqorVkc-140" vertex="1" connectable="0">
                    <mxGeometry x="-0.7826" y="2" relative="1" as="geometry">
                        <mxPoint x="13" y="3" as="offset"/>
                    </mxGeometry>
                </mxCell>
                <mxCell id="CscqqmLNK9t5abqorVkc-142" value="Extends" style="endArrow=block;endSize=16;endFill=0;html=1;" parent="WIyWlLk6GJQsqaUBKTNV-1" source="6IVgwyMmgzkGukLWkvMQ-36" target="6IVgwyMmgzkGukLWkvMQ-28" edge="1">
                    <mxGeometry width="160" relative="1" as="geometry">
                        <mxPoint x="70" y="1753" as="sourcePoint"/>
                        <mxPoint x="230" y="1753" as="targetPoint"/>
                    </mxGeometry>
                </mxCell>
                <mxCell id="CscqqmLNK9t5abqorVkc-143" value="Extends" style="endArrow=block;endSize=16;endFill=0;html=1;" parent="WIyWlLk6GJQsqaUBKTNV-1" source="6IVgwyMmgzkGukLWkvMQ-32" target="6IVgwyMmgzkGukLWkvMQ-28" edge="1">
                    <mxGeometry width="160" relative="1" as="geometry">
                        <mxPoint x="220" y="1410" as="sourcePoint"/>
                        <mxPoint x="380" y="1410" as="targetPoint"/>
                    </mxGeometry>
                </mxCell>
                <mxCell id="CscqqmLNK9t5abqorVkc-151" value="" style="endArrow=diamondThin;endFill=0;endSize=24;html=1;edgeStyle=elbowEdgeStyle;exitX=1;exitY=0.5;exitDx=0;exitDy=0;" parent="WIyWlLk6GJQsqaUBKTNV-1" source="CscqqmLNK9t5abqorVkc-51" target="6IVgwyMmgzkGukLWkvMQ-32" edge="1">
                    <mxGeometry width="160" relative="1" as="geometry">
                        <mxPoint y="640" as="sourcePoint"/>
                        <mxPoint x="720" y="1070" as="targetPoint"/>
                        <Array as="points">
                            <mxPoint x="799" y="880"/>
                            <mxPoint x="729" y="940"/>
                            <mxPoint x="720" y="1040"/>
                            <mxPoint x="679" y="910"/>
                            <mxPoint x="670" y="930"/>
                            <mxPoint x="410" y="1060"/>
                        </Array>
                    </mxGeometry>
                </mxCell>
                <mxCell id="CscqqmLNK9t5abqorVkc-152" value="0..*" style="edgeLabel;html=1;align=center;verticalAlign=middle;resizable=0;points=[];" parent="CscqqmLNK9t5abqorVkc-151" vertex="1" connectable="0">
                    <mxGeometry x="-0.9803" y="2" relative="1" as="geometry">
                        <mxPoint x="1" y="-11" as="offset"/>
                    </mxGeometry>
                </mxCell>
                <mxCell id="CscqqmLNK9t5abqorVkc-161" value="Extends" style="endArrow=block;endSize=16;endFill=0;html=1;" parent="WIyWlLk6GJQsqaUBKTNV-1" source="6IVgwyMmgzkGukLWkvMQ-150" target="6IVgwyMmgzkGukLWkvMQ-8" edge="1">
                    <mxGeometry x="-0.4545" width="160" relative="1" as="geometry">
                        <mxPoint x="351" y="1492" as="sourcePoint"/>
                        <mxPoint x="511" y="1492" as="targetPoint"/>
                        <mxPoint as="offset"/>
                    </mxGeometry>
                </mxCell>
                <mxCell id="CscqqmLNK9t5abqorVkc-163" style="edgeStyle=elbowEdgeStyle;rounded=0;orthogonalLoop=1;jettySize=auto;html=1;exitX=0.75;exitY=0;exitDx=0;exitDy=0;" parent="WIyWlLk6GJQsqaUBKTNV-1" source="6IVgwyMmgzkGukLWkvMQ-150" target="6IVgwyMmgzkGukLWkvMQ-150" edge="1">
                    <mxGeometry relative="1" as="geometry"/>
                </mxCell>
                <mxCell id="CscqqmLNK9t5abqorVkc-173" style="rounded=1;orthogonalLoop=1;jettySize=auto;elbow=vertical;html=1;edgeStyle=elbowEdgeStyle;exitX=0.373;exitY=0.987;exitDx=0;exitDy=0;exitPerimeter=0;" parent="WIyWlLk6GJQsqaUBKTNV-1" source="CscqqmLNK9t5abqorVkc-256" target="6IVgwyMmgzkGukLWkvMQ-8" edge="1">
                    <mxGeometry relative="1" as="geometry">
                        <mxPoint x="650" y="1500" as="targetPoint"/>
                        <mxPoint x="770" y="1258" as="sourcePoint"/>
                        <Array as="points">
                            <mxPoint x="670" y="1450"/>
                            <mxPoint x="770" y="1490"/>
                        </Array>
                    </mxGeometry>
                </mxCell>
                <mxCell id="_CLAHyabNoiACAeS01h1-0" value="0..*" style="edgeLabel;html=1;align=center;verticalAlign=middle;resizable=0;points=[];" parent="CscqqmLNK9t5abqorVkc-173" vertex="1" connectable="0">
                    <mxGeometry x="-0.9797" y="2" relative="1" as="geometry">
                        <mxPoint x="-14" y="6" as="offset"/>
                    </mxGeometry>
                </mxCell>
                <mxCell id="6IVgwyMmgzkGukLWkvMQ-57" value="DeliveryBoy" style="swimlane;fontStyle=1;align=center;verticalAlign=top;childLayout=stackLayout;horizontal=1;startSize=26;horizontalStack=0;resizeParent=1;resizeParentMax=0;resizeLast=0;collapsible=1;marginBottom=0;" parent="WIyWlLk6GJQsqaUBKTNV-1" vertex="1">
                    <mxGeometry x="-490" y="1560" width="228.75" height="86" as="geometry"/>
                </mxCell>
                <mxCell id="6IVgwyMmgzkGukLWkvMQ-59" value="" style="line;strokeWidth=1;fillColor=none;align=left;verticalAlign=middle;spacingTop=-1;spacingLeft=3;spacingRight=3;rotatable=0;labelPosition=right;points=[];portConstraint=eastwest;" parent="6IVgwyMmgzkGukLWkvMQ-57" vertex="1">
                    <mxGeometry y="26" width="228.75" height="8" as="geometry"/>
                </mxCell>
                <mxCell id="CscqqmLNK9t5abqorVkc-19" value="+ deliver(ord: OnlineOrder): OnlineOrder" style="text;strokeColor=none;fillColor=none;align=left;verticalAlign=top;spacingLeft=4;spacingRight=4;overflow=hidden;rotatable=0;points=[[0,0.5],[1,0.5]];portConstraint=eastwest;fontStyle=4" parent="6IVgwyMmgzkGukLWkvMQ-57" vertex="1">
                    <mxGeometry y="34" width="228.75" height="26" as="geometry"/>
                </mxCell>
                <mxCell id="CscqqmLNK9t5abqorVkc-267" value="+ pack(ord: OnlineOrder): OnlineOrder" style="text;strokeColor=none;fillColor=none;align=left;verticalAlign=top;spacingLeft=4;spacingRight=4;overflow=hidden;rotatable=0;points=[[0,0.5],[1,0.5]];portConstraint=eastwest;fontStyle=4" parent="6IVgwyMmgzkGukLWkvMQ-57" vertex="1">
                    <mxGeometry y="60" width="228.75" height="26" as="geometry"/>
                </mxCell>
                <mxCell id="CscqqmLNK9t5abqorVkc-212" value="" style="endArrow=diamondThin;endFill=0;endSize=24;html=1;edgeStyle=elbowEdgeStyle;entryX=1;entryY=0.5;entryDx=0;entryDy=0;exitX=-0.001;exitY=-0.06;exitDx=0;exitDy=0;exitPerimeter=0;" parent="WIyWlLk6GJQsqaUBKTNV-1" source="CscqqmLNK9t5abqorVkc-88" target="CscqqmLNK9t5abqorVkc-119" edge="1">
                    <mxGeometry width="160" relative="1" as="geometry">
                        <mxPoint x="110" y="1301" as="sourcePoint"/>
                        <mxPoint x="510" y="1290" as="targetPoint"/>
                    </mxGeometry>
                </mxCell>
                <mxCell id="CscqqmLNK9t5abqorVkc-265" value="0..*" style="edgeLabel;html=1;align=center;verticalAlign=middle;resizable=0;points=[];" parent="CscqqmLNK9t5abqorVkc-212" vertex="1" connectable="0">
                    <mxGeometry x="-0.9636" relative="1" as="geometry">
                        <mxPoint y="-11" as="offset"/>
                    </mxGeometry>
                </mxCell>
                <mxCell id="CscqqmLNK9t5abqorVkc-232" style="edgeStyle=orthogonalEdgeStyle;rounded=1;orthogonalLoop=1;jettySize=auto;html=1;exitX=1;exitY=0.5;exitDx=0;exitDy=0;" parent="WIyWlLk6GJQsqaUBKTNV-1" source="CscqqmLNK9t5abqorVkc-55" edge="1">
                    <mxGeometry relative="1" as="geometry">
                        <mxPoint x="540" y="1740" as="targetPoint"/>
                        <Array as="points">
                            <mxPoint x="950" y="608"/>
                            <mxPoint x="950" y="1740"/>
                        </Array>
                    </mxGeometry>
                </mxCell>
                <mxCell id="CscqqmLNK9t5abqorVkc-244" value="0..*" style="edgeLabel;html=1;align=center;verticalAlign=middle;resizable=0;points=[];" parent="CscqqmLNK9t5abqorVkc-232" vertex="1" connectable="0">
                    <mxGeometry x="-0.9728" y="3" relative="1" as="geometry">
                        <mxPoint x="-15" y="-12" as="offset"/>
                    </mxGeometry>
                </mxCell>
                <mxCell id="CscqqmLNK9t5abqorVkc-235" value="Extends" style="endArrow=block;endSize=16;endFill=0;html=1;entryX=0.25;entryY=0;entryDx=0;entryDy=0;edgeStyle=elbowEdgeStyle;elbow=vertical;" parent="WIyWlLk6GJQsqaUBKTNV-1" source="6IVgwyMmgzkGukLWkvMQ-57" target="6IVgwyMmgzkGukLWkvMQ-36" edge="1">
                    <mxGeometry width="160" relative="1" as="geometry">
                        <mxPoint x="-350" y="1640" as="sourcePoint"/>
                        <mxPoint x="-210" y="1670" as="targetPoint"/>
                    </mxGeometry>
                </mxCell>
                <mxCell id="CscqqmLNK9t5abqorVkc-238" value="Chief" style="swimlane;fontStyle=1;align=center;verticalAlign=top;childLayout=stackLayout;horizontal=1;startSize=26;horizontalStack=0;resizeParent=1;resizeParentMax=0;resizeLast=0;collapsible=1;marginBottom=0;" parent="WIyWlLk6GJQsqaUBKTNV-1" vertex="1">
                    <mxGeometry x="-30" y="1410" width="160" height="60" as="geometry"/>
                </mxCell>
                <mxCell id="CscqqmLNK9t5abqorVkc-240" value="" style="line;strokeWidth=1;fillColor=none;align=left;verticalAlign=middle;spacingTop=-1;spacingLeft=3;spacingRight=3;rotatable=0;labelPosition=right;points=[];portConstraint=eastwest;" parent="CscqqmLNK9t5abqorVkc-238" vertex="1">
                    <mxGeometry y="26" width="160" height="8" as="geometry"/>
                </mxCell>
                <mxCell id="CscqqmLNK9t5abqorVkc-241" value="+ cook(ord: Order): Order" style="text;strokeColor=none;fillColor=none;align=left;verticalAlign=top;spacingLeft=4;spacingRight=4;overflow=hidden;rotatable=0;points=[[0,0.5],[1,0.5]];portConstraint=eastwest;fontStyle=4" parent="CscqqmLNK9t5abqorVkc-238" vertex="1">
                    <mxGeometry y="34" width="160" height="26" as="geometry"/>
                </mxCell>
                <mxCell id="CscqqmLNK9t5abqorVkc-247" style="edgeStyle=elbowEdgeStyle;rounded=1;orthogonalLoop=1;jettySize=auto;elbow=vertical;html=1;" parent="WIyWlLk6GJQsqaUBKTNV-1" target="CscqqmLNK9t5abqorVkc-238" edge="1">
                    <mxGeometry relative="1" as="geometry">
                        <mxPoint x="386" y="1440" as="sourcePoint"/>
                        <Array as="points">
                            <mxPoint x="270" y="1440"/>
                        </Array>
                    </mxGeometry>
                </mxCell>
                <mxCell id="_CLAHyabNoiACAeS01h1-3" value="0..*" style="edgeLabel;html=1;align=center;verticalAlign=middle;resizable=0;points=[];" parent="CscqqmLNK9t5abqorVkc-247" vertex="1" connectable="0">
                    <mxGeometry x="-0.9134" y="-3" relative="1" as="geometry">
                        <mxPoint x="-13" y="-7" as="offset"/>
                    </mxGeometry>
                </mxCell>
                <mxCell id="CscqqmLNK9t5abqorVkc-250" style="edgeStyle=orthogonalEdgeStyle;rounded=1;orthogonalLoop=1;jettySize=auto;html=1;" parent="WIyWlLk6GJQsqaUBKTNV-1" target="6IVgwyMmgzkGukLWkvMQ-45" edge="1">
                    <mxGeometry relative="1" as="geometry">
                        <Array as="points">
                            <mxPoint x="50" y="1529"/>
                            <mxPoint x="50" y="1529"/>
                        </Array>
                        <mxPoint x="385" y="1529" as="sourcePoint"/>
                    </mxGeometry>
                </mxCell>
                <mxCell id="_CLAHyabNoiACAeS01h1-2" value="0..*" style="edgeLabel;html=1;align=center;verticalAlign=middle;resizable=0;points=[];" parent="CscqqmLNK9t5abqorVkc-250" vertex="1" connectable="0">
                    <mxGeometry x="-0.9464" y="-1" relative="1" as="geometry">
                        <mxPoint x="-11" y="-25" as="offset"/>
                    </mxGeometry>
                </mxCell>
                <mxCell id="CscqqmLNK9t5abqorVkc-263" style="edgeStyle=orthogonalEdgeStyle;rounded=1;orthogonalLoop=1;jettySize=auto;html=1;exitX=0;exitY=0.5;exitDx=0;exitDy=0;" parent="WIyWlLk6GJQsqaUBKTNV-1" source="CscqqmLNK9t5abqorVkc-70" target="6IVgwyMmgzkGukLWkvMQ-57" edge="1">
                    <mxGeometry relative="1" as="geometry">
                        <mxPoint x="330" y="1680" as="targetPoint"/>
                        <mxPoint x="380" y="1740" as="sourcePoint"/>
                        <Array as="points">
                            <mxPoint x="380" y="1739"/>
                            <mxPoint x="230" y="1740"/>
                            <mxPoint x="230" y="1590"/>
                        </Array>
                    </mxGeometry>
                </mxCell>
                <mxCell id="_CLAHyabNoiACAeS01h1-1" value="0..*" style="edgeLabel;html=1;align=center;verticalAlign=middle;resizable=0;points=[];" parent="CscqqmLNK9t5abqorVkc-263" vertex="1" connectable="0">
                    <mxGeometry x="-0.9756" y="-1" relative="1" as="geometry">
                        <mxPoint x="-11" y="-8" as="offset"/>
                    </mxGeometry>
                </mxCell>
                <mxCell id="_CLAHyabNoiACAeS01h1-16" value="" style="endArrow=diamondThin;endFill=0;endSize=24;html=1;edgeStyle=elbowEdgeStyle;" parent="WIyWlLk6GJQsqaUBKTNV-1" source="CscqqmLNK9t5abqorVkc-22" edge="1">
                    <mxGeometry width="160" relative="1" as="geometry">
                        <mxPoint x="545.5" y="970" as="sourcePoint"/>
                        <mxPoint x="546" y="1390" as="targetPoint"/>
                        <Array as="points">
                            <mxPoint x="600" y="1390"/>
                            <mxPoint x="600" y="1170"/>
                            <mxPoint x="580" y="1380"/>
                            <mxPoint x="600" y="1180"/>
                            <mxPoint x="570" y="1180"/>
                        </Array>
                    </mxGeometry>
                </mxCell>
                <mxCell id="_CLAHyabNoiACAeS01h1-17" value="1..*" style="edgeLabel;html=1;align=center;verticalAlign=middle;resizable=0;points=[];" parent="_CLAHyabNoiACAeS01h1-16" vertex="1" connectable="0">
                    <mxGeometry x="-0.9851" y="1" relative="1" as="geometry">
                        <mxPoint x="-21" y="10" as="offset"/>
                    </mxGeometry>
                </mxCell>
            </root>
        </mxGraphModel>
    </diagram>
</mxfile>